<svg width="40" height="40" viewBox="0 0 40 40" fill="none" xmlns="http://www.w3.org/2000/svg">
<circle cx="20" cy="20" r="20" fill="white"/>
<circle cx="20" cy="20" r="19.5" stroke="black" stroke-opacity="0.5"/>
<path d="M18.5714 12C20.0491 12 21.4662 12.587 22.511 13.6318C23.5559 14.6767 24.1429 16.0938 24.1429 17.5714C24.1429 18.9514 23.6371 20.22 22.8057 21.1971L23.0371 21.4286H23.7143L28 25.7143L26.7143 27L22.4286 22.7143V22.0371L22.1971 21.8057C21.22 22.6371 19.9514 23.1429 18.5714 23.1429C17.0938 23.1429 15.6767 22.5559 14.6318 21.511C13.587 20.4662 13 19.0491 13 17.5714C13 16.0938 13.587 14.6767 14.6318 13.6318C15.6767 12.587 17.0938 12 18.5714 12ZM18.5714 13.7143C16.4286 13.7143 14.7143 15.4286 14.7143 17.5714C14.7143 19.7143 16.4286 21.4286 18.5714 21.4286C20.7143 21.4286 22.4286 19.7143 22.4286 17.5714C22.4286 15.4286 20.7143 13.7143 18.5714 13.7143Z" fill="black"/>
</svg>
